<svg width="12" height="10" viewBox="0 0 12 10" fill="none" xmlns="http://www.w3.org/2000/svg">
<path d="M9 3.22222L8.5 3.51852L7.63137 4.03326C7.03784 4.38498 6.74108 4.56084 6.42471 4.62959C6.14483 4.69041 5.85517 4.69041 5.57529 4.62959C5.25892 4.56084 4.96216 4.38498 4.36863 4.03326L3.5 3.51852L3 3.22222M4.2 9H7.8C8.92011 9 9.48016 9 9.90798 8.78201C10.2843 8.59027 10.5903 8.28431 10.782 7.90798C11 7.48016 11 6.92011 11 5.8V4.2C11 3.07989 11 2.51984 10.782 2.09202C10.5903 1.71569 10.2843 1.40973 9.90798 1.21799C9.48016 1 8.92011 1 7.8 1H4.2C3.07989 1 2.51984 1 2.09202 1.21799C1.71569 1.40973 1.40973 1.71569 1.21799 2.09202C1 2.51984 1 3.07989 1 4.2V5.8C1 6.92011 1 7.48016 1.21799 7.90798C1.40973 8.28431 1.71569 8.59027 2.09202 8.78201C2.51984 9 3.07989 9 4.2 9Z" stroke="#425466" stroke-linecap="round"/>
</svg>
